# xmcd
#
# Track frame offsets: 
#        150
#        14875
#        31033
#        44623
#        73453
#        87950
#        105205
#        120005
#        145280
#        160898
#        175235
#
# Disc length: 2466 seconds
#
# Revision: 4
# Processed by: cddbd v1.4PL0 Copyright (c) Steve Scherf et al.
# Submitted via: ExactAudioCopy v0.90b4
#
DISCID=8e09a00b
DTITLE=Mazzy Star - She Hangs Brightly
DYEAR=1990
DGENRE=Rock
TTITLE0=Halah
TTITLE1=Blue Flower
TTITLE2=Ride It On
TTITLE3=She Hangs Brightly
TTITLE4=I'm Sailin'
TTITLE5=Give You My Lovin'
TTITLE6=Be My Angel
TTITLE7=Taste of Blood
TTITLE8=Ghost Highway
TTITLE9=Free
TTITLE10=Before I Sleep
EXTD=
EXTT0=
EXTT1=
EXTT2=
EXTT3=
EXTT4=
EXTT5=
EXTT6=
EXTT7=
EXTT8=
EXTT9=
EXTT10=
PLAYORDER=
